<svg width="150" height="25" viewBox="0 0 150 25" fill="none" xmlns="http://www.w3.org/2000/svg">
<g clip-path="url(#clip0_1005_88)">
<path d="M30.994 1.50505H27.05C26.988 1.50505 26.894 1.56605 26.894 1.65905V5.77405C26.894 5.83605 26.957 5.89705 27.05 5.89705H30.994C31.056 5.89705 31.149 5.83605 31.149 5.77405V1.66005C31.118 1.59805 31.056 1.50605 30.994 1.50605V1.50505ZM30.994 7.70905H27.05C26.988 7.70905 26.894 7.77105 26.894 7.86305V24.418C26.894 24.48 26.957 24.541 27.05 24.541H30.994C31.056 24.541 31.149 24.48 31.149 24.418V7.83205C31.118 7.77105 31.056 7.70905 30.994 7.70905ZM22.67 10.75H12.422C12.36 10.75 12.298 10.812 12.298 10.904V14.528C12.298 14.59 12.36 14.682 12.422 14.682H18.509V20.272C17.081 20.579 15.279 20.794 12.857 20.794C7.577 20.794 4.503 17.63 4.503 12.685C4.503 7.74005 7.578 4.08505 13.758 4.08505C17.298 4.08505 19.255 4.48505 21.025 4.97505C21.149 4.97505 21.242 4.94505 21.242 4.85305L21.615 1.01305C21.615 0.953047 21.584 0.829047 21.46 0.829047C19.472 0.400047 17.205 0.123047 14.193 0.123047C5.03 0.153047 0.0299988 5.62005 0.0299988 12.685C0.0299988 19.75 5.03 24.879 12.546 24.879C17.483 24.879 20.31 24.203 22.67 23.036C22.732 23.006 22.825 22.913 22.825 22.852V10.873C22.794 10.812 22.732 10.75 22.67 10.75ZM42.67 14.067C40.092 13.392 38.726 13.269 38.726 12.225C38.726 10.873 39.813 10.719 41.862 10.719C43.912 10.719 45.869 11.027 47.235 11.519C47.297 11.519 47.421 11.487 47.421 11.426L47.731 8.04705C47.731 7.98605 47.701 7.95505 47.639 7.92405C46.428 7.67905 44.347 7.37205 41.676 7.37205C37.111 7.37205 34.813 9.09205 34.813 12.317C34.813 15.48 36.552 16.74 39.843 17.538C43.26 18.398 44.626 18.49 44.626 19.995C44.626 21.101 43.912 21.531 41.148 21.531C38.664 21.531 37.018 21.163 35.62 20.794C35.59 20.794 35.496 20.824 35.496 20.886L35.123 24.296C35.123 24.356 35.154 24.388 35.247 24.388C36.397 24.572 38.539 24.879 41.552 24.879C46.956 24.879 48.85 23.067 48.85 19.627C48.85 15.941 46.397 15.02 42.67 14.067Z" fill="#0099FF"/>
<path d="M89.876 7.34002C84.255 7.34002 81.149 11.242 81.149 16.095C81.149 20.978 83.696 24.848 90.342 24.848C93.043 24.848 95.404 24.449 96.118 24.173C96.18 24.142 96.211 24.111 96.211 24.019L95.776 20.825C95.776 20.763 95.714 20.702 95.652 20.702C95.093 20.917 93.261 21.47 90.776 21.47C87.019 21.47 85.373 19.75 85.373 17.292H96.988C97.05 17.292 97.143 17.232 97.143 17.17V15.388C97.173 11.242 95.124 7.34002 89.876 7.34002ZM85.404 14.006C85.404 12.071 87.019 10.719 89.752 10.719C91.988 10.719 93.23 12.009 93.23 14.006H85.404ZM110.621 21.009C109.907 21.255 109.006 21.409 107.981 21.409C106.957 21.409 106.584 20.917 106.429 20.026V11.303H110.869C110.932 11.303 110.994 11.242 110.994 11.18V7.83202C110.994 7.77102 110.932 7.67902 110.87 7.67902H106.429V2.02702C106.429 1.93502 106.366 1.87402 106.304 1.87402H102.329C102.267 1.87402 102.174 1.93502 102.174 2.02702V7.71002H99.317C99.255 7.71002 99.161 7.77202 99.161 7.86402V11.181C99.161 11.243 99.224 11.304 99.317 11.304H102.174V20.304C102.174 22.331 103.106 24.911 107.05 24.911C108.882 24.911 110.404 24.604 110.994 24.419C111.056 24.389 111.087 24.358 111.087 24.266L110.745 21.133C110.745 21.041 110.652 21.009 110.621 21.009ZM140.776 7.34102C135.156 7.34102 131.894 11.241 131.894 16.095C131.894 20.978 135.155 24.848 140.776 24.848C146.398 24.848 149.689 20.978 149.689 16.095C149.689 11.242 146.398 7.34102 140.776 7.34102ZM140.776 21.531C137.546 21.531 136.211 18.981 136.211 16.125C136.211 13.269 137.578 10.719 140.776 10.719C144.006 10.719 145.373 13.269 145.373 16.125C145.403 18.982 144.006 21.531 140.776 21.531ZM71.77 7.34102C68.23 7.34102 66.335 9.30702 65.9 9.85902C65.466 9.18402 64.068 7.34102 60.776 7.34102C59.099 7.34102 57.64 7.86302 56.553 8.84602C56.366 9.03002 56.149 9.30602 56.087 9.52202H56.025C56.087 9.30702 56.18 8.84602 56.18 8.53902V7.83202C56.18 7.77102 56.118 7.67902 56.025 7.67902H52.05C51.988 7.67902 51.925 7.74002 51.925 7.83202V24.388C51.925 24.449 51.988 24.51 52.05 24.51H56.025C56.087 24.51 56.18 24.45 56.18 24.388V13.638C56.18 11.795 57.64 10.935 59.503 10.935C61.366 10.935 62.857 11.795 62.857 13.637V24.387C62.857 24.449 62.919 24.51 63.012 24.51H66.988C67.05 24.51 67.112 24.45 67.112 24.388V13.638C67.112 11.795 68.572 10.935 70.435 10.935C72.298 10.935 73.758 11.795 73.758 13.637V24.387C73.758 24.449 73.82 24.51 73.913 24.51H77.981C78.043 24.51 78.137 24.45 78.137 24.388V13.822C78.137 9.39902 75.28 7.34102 71.77 7.34102ZM122.08 7.34102C116.46 7.34102 113.354 11.241 113.354 16.125C113.354 21.009 115.901 24.879 122.547 24.879C125.28 24.879 127.64 24.479 128.354 24.203C128.416 24.173 128.478 24.142 128.478 24.05L128.043 20.855C128.043 20.794 127.981 20.733 127.919 20.733C127.329 20.948 125.528 21.5 123.043 21.5C119.286 21.5 117.64 19.78 117.64 17.323H129.255C129.317 17.323 129.41 17.262 129.41 17.2V15.42C129.379 11.243 127.33 7.34102 122.08 7.34102ZM117.609 14.006C117.609 12.071 119.224 10.719 121.957 10.719C124.224 10.719 125.435 12.009 125.435 14.006H117.609Z" fill="black"/>
</g>
<defs>
<clipPath id="clip0_1005_88">
<rect width="150" height="25" fill="white"/>
</clipPath>
</defs>
</svg>
