<svg width="48" height="48" viewBox="0 0 48 48" fill="none" xmlns="http://www.w3.org/2000/svg">
<rect width="48" height="48" rx="8" fill="black"/>
<path d="M12.6305 23.123C12.6856 23.0954 12.7408 23.0692 12.7945 23.0444C13.7287 22.6118 14.6753 22.2067 15.6206 21.8016C15.6716 21.8016 15.757 21.7423 15.8052 21.723C15.8782 21.6913 15.9513 21.661 16.0243 21.6293C16.1648 21.5687 16.3054 21.5094 16.4446 21.4488C16.7256 21.3289 17.0053 21.2091 17.2864 21.0892C17.8472 20.8495 18.408 20.6097 18.9688 20.3686C20.0904 19.8891 21.2134 19.4082 22.335 18.9287C23.4566 18.4491 24.5796 17.9683 25.7012 17.4888C26.8228 17.0093 27.9458 16.5284 29.0674 16.0489C30.189 15.5694 31.312 15.0885 32.4336 14.609C32.683 14.5015 32.953 14.3417 33.2203 14.2948C33.4449 14.2549 33.664 14.1777 33.89 14.135C34.3185 14.0537 34.7911 14.0206 35.2017 14.1984C35.3437 14.2604 35.4746 14.3472 35.5834 14.456C36.1043 14.9714 36.0312 15.8174 35.921 16.5422C35.1535 21.5935 34.386 26.6462 33.6172 31.6976C33.5124 32.3906 33.3691 33.1512 32.8221 33.5894C32.3591 33.9601 31.7005 34.0014 31.1287 33.8443C30.5569 33.6858 30.0526 33.3538 29.5579 33.0272C27.5062 31.6686 25.4532 30.31 23.4015 28.9514C22.9137 28.629 22.3709 28.2074 22.3764 27.6218C22.3791 27.269 22.5899 26.9548 22.8049 26.6751C24.5879 24.3493 27.1604 22.7509 29.0743 20.5325C29.3443 20.2198 29.5565 19.6548 29.1859 19.4743C28.9654 19.3668 28.7119 19.5129 28.5107 19.652C25.9809 21.4089 23.4525 23.167 20.9227 24.9238C20.0973 25.497 19.232 26.0868 18.2372 26.2273C17.3471 26.3541 16.4514 26.1061 15.5903 25.8525C14.8683 25.6403 14.1476 25.4226 13.4297 25.198C13.048 25.0795 12.654 24.9514 12.3591 24.6827C12.0642 24.414 11.8948 23.9621 12.0725 23.6039C12.1841 23.3793 12.4005 23.2373 12.6278 23.1216L12.6305 23.123Z" fill="white"/>
</svg>
